<?xml version="1.0" encoding="utf-8"?>
<!DOCTYPE svg PUBLIC "-//W3C//DTD SVG 20010904//EN" "http://www.w3.org/TR/2001/REC-SVG-20010904/DTD/svg10.dtd">
<svg version="1.0" xmlns="http://www.w3.org/2000/svg" width="1200px" height="167px" viewBox="0 0 1200 167" preserveAspectRatio="xMidYMid meet">
 <g fill="#ffffff">
  <path d="M0 164.5 c0 -2.4 0.3 -2.5 6 -2.5 l5.9 0 0.3 -40.2 0.3 -40.3 2.5 -5 c3.5 -6.9 12.3 -15.5 19.5 -19.1 5.7 -2.8 6.6 -2.9 19.5 -2.9 12 0 14.1 0.3 18.5 2.3 6.1 2.8 8.9 5.4 12.3 11.2 l2.7 4.5 0.3 44.8 0.3 44.7 4.5 0 4.5 0 -0.3 -44.2 -0.3 -44.3 -2.9 -5.8 c-13.3 -26.3 -52 -29 -71.6 -5.1 -2.8 3.4 -4.2 4.3 -6.7 4.3 l-3.3 0.1 0 -33.5 0 -33.5 127.5 0 127.5 0 -0.2 81 -0.3 81 3.6 0 3.6 0 1.3 -10 c1.2 -10 1.2 -10 4 -10 2.1 0 4.5 1.8 10.1 7.4 6.7 6.6 16 12.6 19.7 12.6 0.7 0 1.2 0.5 1.2 1 0 0.6 0.7 1 1.5 1 0.8 0 1.5 0.7 1.5 1.5 0 1.3 -8.3 1.5 -68.5 1.5 -60.2 0 -68.5 -0.2 -68.5 -1.5 0 -0.8 0.7 -1.5 1.5 -1.5 0.8 0 1.5 -0.4 1.5 -1 0 -0.5 0.8 -1 1.9 -1 6.7 0 24.7 -11.2 28.1 -17.5 1 -1.9 2.2 -2.5 4.6 -2.5 3.6 0 3.7 0.3 4.9 11 1 8.6 1.2 9 5.2 9 3.5 0 3.5 -0.1 2.8 -3.2 -0.4 -1.8 -1 -21.5 -1.4 -43.8 l-0.6 -40.5 -2.6 -5.5 c-4.8 -10.1 -11.9 -16.4 -23.2 -20.3 -5.2 -1.8 -8.4 -2.2 -19.7 -2.1 -15 0 -20.6 1.4 -28.9 7.5 -4.4 3.1 -11.4 13 -12.5 17.5 -0.8 3.2 -1 3.1 3.8 3.6 3.7 0.3 4 0.1 4.8 -3.1 2 -7.5 8.5 -14.5 15.6 -16.9 9.8 -3.3 32.4 -2.1 41.8 2.2 9.4 4.3 13.4 12.2 13.4 26.1 l0 9.3 -11.2 1.6 c-6.2 1 -18.3 2.8 -26.8 4.2 -27.5 4.4 -38.4 9.3 -44.4 20 -8.3 14.9 -2.8 32.7 12.6 40.3 3.4 1.7 6.9 3.1 8 3.1 1 0 1.8 0.5 1.8 1 0 0.6 0.9 1 2 1 1.1 0 2 0.7 2 1.5 0 1.3 -9.6 1.5 -80.5 1.5 l-80.5 0 0 -2.5z"/>
  <path d="M324 165.5 c0 -1 1.1 -1.5 3.5 -1.5 1.9 0 3.5 -0.4 3.5 -1 0 -0.5 0.7 -1 1.5 -1 2 0 11.7 -4.4 14.6 -6.6 14.8 -11.5 22.2 -28.8 22.1 -51.4 -0.1 -18.1 -5.3 -33 -15.1 -43.4 -6.6 -6.9 -11.2 -9.7 -20.5 -12.5 -16.3 -5 -31.7 -1 -44.4 11.6 -5.3 5.3 -6.9 6.3 -9.8 6.3 l-3.4 0 0 -33 0 -33 68 0 c74.8 0 71.7 -0.3 64.8 5.9 -2.9 2.6 -3.1 3.1 -2 5.5 0.6 1.4 2.3 3.1 3.7 3.8 2.1 0.9 2.8 0.8 4.6 -0.8 4.1 -3.7 4.3 -5.2 0.9 -8.5 -5.9 -5.9 -6 -5.9 26.5 -5.9 l29.5 0 0 24 0 23.9 -10.7 0.3 -10.8 0.3 0 3.5 0 3.5 10.8 0.3 10.7 0.3 0 35.1 c0 46.1 1.3 53.2 11.5 63.2 2.5 2.6 6.5 5.1 9.4 6.2 2.8 1 5.1 2.2 5.1 2.6 0 0.4 1.1 0.8 2.5 0.8 1.6 0 2.5 0.6 2.5 1.5 0 1.3 -10.6 1.5 -89.5 1.5 -78.9 0 -89.5 -0.2 -89.5 -1.5z m92.8 -60.7 l0.2 -56.8 -4.5 0 -4.5 0 0 57.1 0 57 4.3 -0.3 4.2 -0.3 0.3 -56.7z"/>
  <path d="M516 165.5 c0 -0.8 0.7 -1.5 1.6 -1.5 1.2 0 1.4 -0.9 1.2 -3.7 l-0.3 -3.8 -11.1 -0.6 c-12.9 -0.8 -18.1 -2.8 -21.8 -8.7 -3.9 -6.3 -4.6 -14.2 -4.6 -54 l0 -37.2 18 0 18 0 0 -4 0 -4 -18 0 -18 0 0 -24 0 -24 38.5 0 c42.4 0 42 -0.1 35.3 5.9 -2.9 2.6 -3.1 3.1 -2 5.5 0.6 1.4 2.3 3.1 3.7 3.8 2.2 1 2.9 0.8 5 -1.2 3.2 -3 3.2 -5.5 0 -8.4 -1.4 -1.3 -2.5 -3.1 -2.5 -4 0 -1.5 11.7 -1.6 148.5 -1.6 135.7 0 148.5 0.1 148.5 1.6 0 0.9 -1.1 2.5 -2.6 3.6 -3.2 2.6 -2.9 6.4 0.9 9.1 l2.7 2.1 2.8 -2.1 c3.8 -2.8 3.9 -5.5 0.3 -8.6 -1.7 -1.4 -3.1 -3.3 -3.1 -4.1 0 -1.4 16.6 -1.6 171.5 -1.6 l171.5 0 0 48 c0 42 -0.2 48 -1.5 48 -0.9 0 -1.5 -0.9 -1.5 -2.5 0 -1.4 -0.3 -2.5 -0.8 -2.5 -0.4 0 -1.3 -2.7 -1.9 -6 -1.6 -8.5 -6.4 -18.1 -12 -24.1 -6.1 -6.6 -10.2 -9.1 -19.7 -12.3 -17.1 -5.8 -37.5 -1.8 -50.1 9.6 -12.1 11.1 -17.6 28.7 -16.6 53.6 0.1 3.1 0.2 3.2 4.9 3.2 l4.7 0 -0.3 -9.1 c-0.2 -5.1 0.1 -12.9 0.7 -17.4 2.6 -19.4 9.2 -28.8 23.1 -32.9 6.9 -2.1 27.6 -2.2 34.1 -0.2 17 5.2 23.9 18.9 23.9 47.2 l0 12.4 5 0 c3.8 0 5 -0.4 5 -1.5 0 -0.8 0.7 -1.5 1.5 -1.5 1.3 0 1.5 3.7 1.5 27.5 l0 27.5 -23.5 0 c-20.2 0 -23.5 -0.2 -23.5 -1.5 0 -0.8 0.9 -1.5 1.9 -1.5 1.1 0 2.1 -0.3 2.3 -0.8 0.2 -0.4 2.9 -1.5 6 -2.5 7.8 -2.4 17.2 -8.9 21.7 -15.1 3.6 -4.7 7.1 -10.7 7.1 -12.1 0 -0.3 -1.9 -0.5 -4.3 -0.5 -4.2 0 -4.3 0.1 -6 4.9 -2.3 6.6 -9.7 13.4 -16.8 15.5 -12 3.6 -32.7 2.9 -41.5 -1.3 -5.4 -2.6 -12 -9.9 -13.5 -15 -1.2 -4 -1.3 -4.1 -5.6 -4.1 l-4.3 0 1.5 3.6 c4.5 10.9 19.2 22.8 30.8 24.9 2 0.4 3.7 1.1 3.7 1.6 0 0.5 0.9 0.9 2 0.9 1.1 0 2 0.7 2 1.5 0 1.3 -21.1 1.5 -184 1.5 -162.9 0 -184 -0.2 -184 -1.5 0 -0.9 0.9 -1.5 2.5 -1.5 1.4 0 2.5 -0.4 2.5 -0.9 0 -0.4 1.5 -1.1 3.3 -1.4 9.6 -1.5 23.3 -11.6 28.8 -21.1 3.9 -6.9 3.8 -7.8 -1.2 -7.4 -3.8 0.3 -4.2 0.6 -5.4 4.2 -4.5 13 -18.6 19.5 -40.2 18.2 -18.8 -1.1 -27.3 -6.3 -32.2 -19.8 -0.9 -2.4 -1.6 -2.8 -5.1 -2.8 -2.7 0 -4 0.4 -4 1.4 0 1.9 7.2 12.4 10.7 15.8 4.3 4.1 13.9 9.5 19.4 10.9 2.7 0.7 4.9 1.6 4.9 2.1 0 0.4 1.1 0.8 2.5 0.8 1.6 0 2.5 0.6 2.5 1.5 0 1.3 -6.8 1.5 -55.5 1.5 -48.7 0 -55.5 -0.2 -55.5 -1.5 0 -0.9 0.9 -1.5 2.4 -1.5 1.3 0 2.6 -0.3 2.8 -0.8 0.2 -0.4 2.8 -1.5 5.9 -2.5 6 -1.8 16 -7.9 19.6 -11.8 2.4 -2.7 9.3 -13.8 9.3 -15.1 0 -0.4 -1.9 -0.8 -4.3 -0.8 -4.2 0 -4.3 0.1 -6 5 -4.6 12.8 -19.1 19.1 -40.7 17.6 -13.1 -0.9 -18.6 -2.9 -24.5 -8.9 -3.2 -3.3 -5.5 -6.8 -6.3 -9.4 -1.3 -4.2 -1.4 -4.3 -5.7 -4.3 -3.8 0 -4.3 0.3 -3.8 1.8 1.5 4 7.3 12 11.7 16 5 4.6 17.6 11.2 21.3 11.2 1.3 0 2.3 0.5 2.3 1 0 0.6 1.1 1 2.5 1 1.6 0 2.5 0.6 2.5 1.5 0 1.3 -7.5 1.5 -61.5 1.5 -54 0 -61.5 -0.2 -61.5 -1.5z m46.8 -60.7 l0.2 -56.8 -4.5 0 -4.5 0 0 56.3 c0 31 0.3 56.7 0.7 57.1 0.4 0.4 2.3 0.6 4.3 0.4 l3.5 -0.3 0.3 -56.7z m298.2 0.2 l0 -57 -4 0 -4 0 0 57 0 57 4 0 4 0 0 -57z m50.6 17 l0.1 -39.5 3.1 -6.7 c3.7 -8.1 9.4 -14.5 16.4 -18.4 5.1 -2.8 5.8 -2.9 17.8 -2.9 11 0 13 0.3 16.7 2.3 2.3 1.2 5.4 3.8 6.9 5.7 4.9 6.5 5.4 11.2 5.4 57.3 l0 42.2 4.5 0 4.4 0 0.3 -40.7 0.3 -40.8 3 -5.8 c3.9 -7.6 10.7 -14.6 17 -17.7 3.8 -1.8 7.1 -2.5 13.9 -2.8 15.8 -0.8 23.8 2.6 28.9 12.2 2.2 4 2.2 5 2.5 49.9 l0.3 45.7 4.5 0 4.4 0 0 -41.7 c-0.1 -43.7 -0.5 -49 -4.6 -56.5 -8.6 -15.6 -29.2 -22.1 -45.6 -14.4 -6.8 3.2 -13.7 9.2 -17.5 15.1 -2.5 3.9 -3.2 4.5 -6.3 4.5 -3.2 0 -3.7 -0.4 -4.8 -3.4 -2.1 -5.8 -9.4 -13 -16.4 -16.2 -5.5 -2.5 -7.5 -2.9 -15.3 -2.9 -7.1 0 -9.9 0.5 -13.5 2.2 -6.9 3.3 -12.4 7.7 -16 12.7 -2.9 4 -3.8 4.6 -7 4.6 l-3.7 0 -1.3 -9 -1.3 -9 -3.5 0 -3.5 0 0.6 14.3 c0.4 7.8 0.7 33.5 0.7 57 l0 42.8 4.3 -0.3 4.2 -0.3 0.1 -39.5z m-224.5 -10.8 c-4.9 -6.2 -12.3 -9 -33.1 -12.3 -17.5 -2.8 -32 -5.9 -34.9 -7.3 -4.2 -2.2 -5.8 -5 -6.6 -11.8 -1.2 -10.6 2.8 -19 11 -23.1 7.2 -3.5 20.2 -4.6 32.4 -2.6 12.5 2 18.5 6.4 22.6 16.5 2.3 5.7 2.5 5.9 6.4 6.2 4.9 0.4 5 -0.3 1.7 -7.3 -3.1 -6.6 -9.5 -13.7 -15.4 -17 -6.5 -3.7 -18.1 -6.5 -27 -6.5 -21.2 0 -36.7 10.3 -40.3 26.9 -1.6 7.4 0.2 13.2 5.7 18.7 7.7 7.8 18.8 11.2 47.4 14.9 14.9 1.9 19.8 3.3 21.8 6.1 1.4 1.9 2.6 2.3 6.5 2.4 l4.9 0 -3.1 -3.8z m123.9 1.9 c-1.8 -3.5 -8.4 -8.1 -14.5 -10.1 -3.3 -1.1 -13.4 -3.1 -22.4 -4.5 -27.9 -4.4 -34.4 -6.3 -37.4 -11.4 -2.6 -4.5 -2.3 -16.4 0.6 -22.1 4.4 -8.8 11.6 -11.5 30.2 -11.3 14 0 18.8 1.1 25.6 5.9 3.6 2.5 8.1 9.5 9.3 14.7 0.6 2.4 1.1 2.7 5.1 2.7 l4.4 0 -1.5 -4.2 c-6 -17 -22 -26.8 -43.7 -26.8 -10.4 0 -21.3 3.2 -28.3 8.2 -12.6 9 -16.3 26 -7.8 36.1 7.1 8.5 19.4 12.4 50.2 16.2 13.2 1.6 18.7 3.4 20.9 6.5 1.1 1.5 2.6 2 5.9 2 4.1 0 4.4 -0.2 3.4 -1.9z"/>
  <path d="M152.7 154.3 c-9.7 -3.6 -12.7 -9 -12.7 -22.3 0.1 -12.4 3.7 -17.9 14.3 -21.9 6.9 -2.5 51.3 -10.1 59.5 -10.1 l3.4 0 -0.4 13.3 c-0.3 12.1 -0.5 13.7 -3.1 18.9 -4.4 9 -13.2 16.6 -24.2 20.8 -8.3 3.2 -29.6 3.9 -36.8 1.3z"/>
  <path d="M307 154.6 c-10.8 -3 -20.3 -10.2 -25.5 -19.1 -3.8 -6.5 -4.8 -14.4 -4.3 -34.7 0.3 -17.2 0.5 -18.6 2.9 -23.8 4 -8.4 9.9 -14.4 18.5 -18.6 6.7 -3.3 8.4 -3.8 17.5 -4.2 19.8 -0.9 30 3.9 38.3 18 5.3 9.1 8 31.6 5.6 46.5 -4.1 25.4 -16.9 37.4 -39.9 37.2 -4.7 0 -10.6 -0.6 -13.1 -1.3z"/>
 </g>
 <g fill="#7a797e">
  <path d="M153 165.2 c-11.4 -3 -19.8 -9.6 -23.2 -18.2 -5.1 -13.1 -1.7 -30.8 7.4 -38.5 9 -7.6 18 -9.9 65.6 -17.1 l11.3 -1.7 -0.2 -6.6 c-0.6 -16.1 -8.5 -23.8 -27.3 -26.1 -17.2 -2.1 -28 1.4 -34.1 11 -1.3 2.1 -2.7 5.1 -3.1 6.7 -1.2 4.8 -1.7 5 -9.6 3.8 -8.3 -1.2 -8.3 -1.4 -4.9 -10.6 5.7 -15 17.2 -22.9 35.7 -24.8 23.1 -2.3 42.3 4.1 51.2 17.3 5.7 8.6 6.1 11.3 6.6 53.6 0.3 21.2 0.9 41.3 1.2 44.8 l0.6 6.2 -6.5 0 c-7.4 0 -7.1 0.3 -8.2 -9 -0.3 -3 -0.9 -6.8 -1.2 -8.4 l-0.5 -2.9 -1.9 3 c-3.2 5.1 -13.3 12.4 -21 15.2 -11.8 4.4 -26.6 5.2 -37.9 2.3z m33.5 -15.2 c11 -4.2 19.8 -11.7 24.2 -20.8 2.4 -4.9 2.8 -7.2 3.1 -15.9 0.2 -5.8 0 -10.3 -0.5 -10.3 -0.5 0 -3.4 0.4 -6.4 1 -3 0.5 -7.4 1.2 -9.9 1.5 -14 1.9 -35.2 6 -39.7 7.6 -2.8 1.1 -6.4 2.9 -7.8 4.1 -7.9 6.2 -8.7 22.6 -1.5 29.5 5.1 4.8 11.1 6.4 22.5 6 7.3 -0.3 11.6 -1.1 16 -2.7z"/>
  <path d="M306 165.1 c-8.9 -3 -12.1 -5 -19.7 -12.6 l-7.1 -7.1 -1.3 9.8 -1.2 9.8 -7 0 -6.9 0 0.5 -7.7 c0.4 -4.3 0.6 -41.4 0.7 -82.5 l0 -74.8 7.5 0 7.5 0 0 31.5 c0 17.3 0.2 31.5 0.4 31.5 0.2 0 3.3 -2.8 6.8 -6.3 10 -9.9 20.3 -14 34.8 -13.9 9.3 0.1 19.6 2.7 26.5 6.7 5.9 3.4 14.8 13.2 17.9 19.8 4.9 10.5 6.8 19.9 6.9 34.2 0.2 25.7 -6.7 42.8 -22.2 54.9 -3.4 2.6 -11.7 6.2 -17.3 7.3 -8 1.7 -20.7 1.4 -26.8 -0.6z m26.8 -14.4 c20.4 -7.2 29.7 -34 22.6 -64.7 -4.5 -19.6 -19.1 -30.2 -39.2 -28.7 -14.5 1.1 -27 9.7 -33 22.7 -2.4 5 -2.6 7 -3 20.8 -0.5 17.1 0.6 25.4 4.3 31.7 5.2 8.9 14.8 16.1 25.5 19 5.8 1.6 17.3 1.2 22.8 -0.8z"/>
  <path d="M497.5 166 c-13.1 -2.8 -23.5 -12.2 -25.9 -23.5 -0.3 -1.6 -0.9 -4.1 -1.3 -5.5 -0.4 -1.4 -0.9 -19.5 -1 -40.2 l-0.4 -37.7 -10.7 -0.3 -10.7 -0.3 0 -6.5 0 -6.5 10.8 -0.3 10.7 -0.3 0 -22.4 0 -22.5 7.5 0 7.5 0 0 22.5 0 22.5 18.3 0 18.2 0 0 7 0 7 -18.2 0 -18.3 0 0 34.2 c0 21.1 0.4 36.6 1.1 40.7 1.5 8.2 4.7 13.4 9.8 16.1 4.9 2.5 16.2 3.6 21.5 2.1 2.2 -0.6 4.2 -0.9 4.4 -0.6 1 0.9 1.9 13.1 1.1 14 -1.2 1.2 -19.2 1.6 -24.4 0.5z"/>
  <path d="M0 82.5 l0 -82.5 7.5 0 7.5 0 0 32 0 32 3.7 -4.2 c10.4 -11.8 21.9 -17 37.3 -16.9 19.1 0 33.5 7.8 40.6 21.8 l2.9 5.8 0.3 47.3 0.3 47.2 -7.5 0 -7.5 0 -0.3 -44.7 -0.3 -44.8 -2.7 -4.5 c-5.9 -10.2 -12.8 -13.5 -27.8 -13.5 -9.6 0 -11 0.3 -16.5 3 -7.2 3.5 -16 12.1 -19.5 19 l-2.5 5 -0.3 40.3 -0.3 40.2 -7.4 0 -7.5 0 0 -82.5z"/>
  <path d="M405 105 l0 -60 7.5 0 7.5 0 -0.2 59.8 -0.3 59.7 -7.2 0.3 -7.3 0.3 0 -60.1z"/>
  <path d="M551.7 164.4 c-0.4 -0.4 -0.7 -27.4 -0.7 -60.1 l0 -59.3 7.5 0 7.5 0 -0.2 59.8 -0.3 59.7 -6.5 0.3 c-3.6 0.2 -6.9 0 -7.3 -0.4z"/>
  <path d="M850 164.5 c0 -0.3 0 -27.2 0 -59.7 l0 -59.3 7 -0.3 7 -0.3 0 60.1 0 60 -7 0 c-3.8 0 -7 -0.2 -7 -0.5z"/>
  <path d="M899.7 109.3 c-0.3 -30.7 -0.9 -57.7 -1.2 -60 l-0.6 -4.3 6.9 0 6.9 0 1.3 9 c0.7 5 1.6 9 2 9 0.4 0 2.1 -2 3.9 -4.5 10.8 -15.1 32.7 -20.2 51.2 -11.9 6.7 3 14 10.3 16.1 16 0.6 1.9 1.4 3.4 1.8 3.4 0.3 0 1.8 -2 3.3 -4.5 15.7 -24.8 55.6 -25.2 69.1 -0.7 4.1 7.6 4.5 12.6 4.6 59.5 l0 44.7 -7.4 0 -7.5 0 -0.3 -45.7 c-0.3 -44.9 -0.3 -45.9 -2.5 -49.9 -4.9 -9.1 -13.5 -13.1 -25.9 -12.1 -11.7 0.9 -21.6 8.2 -27.9 20.4 l-3 5.8 -0.3 40.8 -0.3 40.7 -7.4 0 -7.5 0 0 -42.2 c0 -46.1 -0.5 -50.8 -5.4 -57.3 -4.6 -6 -9.6 -7.9 -20.6 -8 -8.7 0 -10 0.3 -14.8 2.9 -7 3.9 -12.7 10.3 -16.3 18.2 l-3 6.5 -0.2 39.7 -0.2 39.7 -7.1 0.3 -7.2 0.3 -0.5 -55.8z"/>
  <path d="M675.8 115.6 c-2 -2.8 -6.9 -4.2 -21.8 -6.1 -28.6 -3.7 -39.7 -7.1 -47.4 -14.9 -5.2 -5.1 -7 -11 -6.4 -20 1.6 -20.1 18.1 -31.9 44.3 -31.8 17.3 0.1 30.5 4.8 38.6 14 5 5.7 7.3 10 9.2 17.4 l1.5 5.7 -7.9 0.3 -7.8 0.3 -2.1 -5.8 c-4 -10.9 -10.4 -15.7 -24 -17.8 -16.8 -2.6 -31.1 2.6 -35 12.6 -1.6 4.1 -1.3 12.3 0.5 15.1 1.9 2.9 5.9 5 11.6 6.3 6.2 1.4 27.5 5.1 32.9 5.7 17.5 2 29.8 9.2 31.6 18.4 l0.7 3 -8.4 0 c-7.6 -0.1 -8.6 -0.3 -10.1 -2.4z"/>
  <path d="M798.7 116 c-2.4 -3.5 -8 -5.1 -22.2 -6.5 -14.9 -1.4 -34.1 -6 -40.6 -9.8 -10.1 -5.7 -13.9 -12.6 -13.3 -24.1 0.8 -15.1 8.8 -24.7 25 -30.2 6.8 -2.3 9.5 -2.6 19.4 -2.6 25.4 0.2 40.3 9.3 47 28.7 3 8.7 3.1 8.5 -6 8.5 -7.9 0 -8 0 -8.6 -2.7 -2.1 -8.8 -8.2 -15.5 -17.4 -18.9 -5.5 -2 -22.6 -2.3 -28.6 -0.6 -9.4 2.7 -15.4 10.1 -15.4 19 0 11.1 4.7 13.3 39.1 18.7 9 1.4 19.1 3.4 22.4 4.5 9.1 3 14.6 8.2 16.9 15.8 0.7 2.2 0.6 2.2 -7.8 2.2 -7.3 0 -8.7 -0.3 -9.9 -2z"/>
  <path d="M1092.6 112.7 c-1.8 -14.4 2.3 -36.8 8.7 -47.5 6.2 -10.4 17.2 -18.1 30.5 -21.2 3 -0.7 9.9 -1.2 15.5 -1.2 8.3 0 11.6 0.5 18.1 2.7 9.6 3.2 13.7 5.8 19.8 12.2 6.6 7.2 10.9 16.5 13.3 28.8 1.1 5.7 1.8 22.2 1.1 26.8 l-0.7 4.7 -7.7 0 -7.7 0 0.4 -11.2 c0.7 -22.6 -4.4 -37.7 -15.2 -44.5 -6 -3.8 -12.3 -5.3 -22.3 -5.3 -14.7 0 -24.1 3.8 -30.1 12.3 -5.9 8.2 -9 23.7 -7.9 39.5 l0.6 9.2 -7.9 0 -7.9 0 -0.6 -5.3z"/>
  <path d="M408.3 18.5 c-6.3 -2.7 -7.6 -11 -2.4 -15.7 4.3 -3.9 9.2 -3.8 13.2 0.1 3.9 4 4 8.9 0.2 13 -3.4 3.6 -6.8 4.4 -11 2.6z"/>
  <path d="M555.3 18.8 c-4.1 -1.1 -6.7 -4.9 -6.6 -9.6 0.2 -7.2 9.5 -11.8 14.9 -7.4 4.9 4 5.7 9.5 1.9 14 -2.8 3.4 -5.6 4.2 -10.2 3z"/>
  <path d="M853 18.2 c-9.3 -4.6 -6.6 -18.2 3.6 -18.2 3.8 0 8.9 3.8 9.8 7.3 1.9 7.8 -6.2 14.5 -13.4 10.9z"/>
 </g>
 <g fill="#de9f25">
  <path d="M630.8 165.5 c-17.1 -3.4 -33.6 -18.1 -36.4 -32.3 l-0.6 -3.2 8 0 8.1 0 1.2 4.1 c1.7 5.4 8.8 13.3 13.9 15.3 7 2.8 17.9 3.9 26.4 2.8 13.2 -1.8 21.9 -7.7 25.3 -17.2 l1.8 -5 8.2 0 8.2 0 -1.4 4.6 c-7.1 23.6 -33.7 36.7 -62.7 30.9z"/>
  <path d="M753 165.4 c-17.6 -3.8 -33 -17.5 -36.6 -32.6 l-0.6 -2.8 8.1 0 c8 0 8.2 0.1 9.2 2.8 3.3 9.1 7.8 13.9 16.1 17 11.7 4.4 29.2 3.5 39 -2 5 -2.8 9.5 -8.2 11.3 -13.4 l1.3 -3.9 8.2 -0.3 8.2 -0.3 -0.6 2.8 c-2.6 11.1 -12.9 23.4 -24.2 28.7 -11.1 5.3 -26.4 6.8 -39.4 4z"/>
 </g>
 <g fill="#5f94cc">
  <path d="M1131.5 165.1 c-10.8 -2.6 -16.3 -5.7 -24.1 -13.6 -5.4 -5.4 -7.7 -8.6 -9.3 -12.9 -3.2 -8.7 -3.3 -8.6 5.7 -8.6 l7.9 0 1.2 4.1 c1.5 5.1 8.1 12.4 13.5 15 8.6 4.1 23.4 4.7 35.5 1.3 7 -2 14.5 -8.8 16.8 -15.5 l1.8 -4.9 8.2 0 8.2 0 -1.3 4.5 c-3.1 10.2 -11.6 20.5 -21.3 25.8 -11.8 6.3 -28.8 8.3 -42.8 4.8z"/>
 </g>
</svg>